<?xml version="1.0" encoding="UTF-8"?>
<svg width="796px" height="196px" viewBox="0 0 796 196" version="1.1" xmlns="http://www.w3.org/2000/svg" xmlns:xlink="http://www.w3.org/1999/xlink">
    <!-- Generator: Sketch 42 (36781) - http://www.bohemiancoding.com/sketch -->
    <title>Bluekiri</title>
    <desc>Bluekiri</desc>
    <defs></defs>
    <g id="Page-1" stroke="none" stroke-width="1" fill="none" fill-rule="evenodd">
        <g id="Desktop" transform="translate(-114.000000, -416.000000)">
            <g id="Group-2-Copy-2" transform="translate(114.000000, 416.000000)">
                <path d="M251.279551,117.33624 C251.279551,101.5896 241.238185,91.38024 227.561152,91.2072 C215.269135,91.2072 206.093405,99.51312 204.189008,112.49112 L204.189008,122.18136 C206.093405,135.15936 215.269135,143.46528 227.561152,143.46528 C241.757566,143.46528 251.279551,133.08288 251.279551,117.33624 Z M176.488688,18.01128 L204.362135,18.01128 L204.189008,70.26936 C212.845357,67.50072 222.194215,65.94336 229.98493,65.94336 C232.062454,65.94336 234.139978,65.94336 236.044375,66.28944 C259.589647,68.01984 277.941109,88.6116 279.845506,112.49112 C280.19176,115.25976 280.19176,118.0284 280.018633,120.79704 C278.633617,145.88784 260.282155,166.82568 236.044375,168.38304 C232.754962,168.55608 229.638676,168.55608 226.695517,168.55608 C213.018484,167.69088 202.803992,163.71096 195.013277,158.00064 C194.320769,159.90408 194.320769,165.6144 194.320769,166.99872 L176.488688,166.99872 L176.488688,18.01128 Z M325.218226,166.99872 C328.334512,163.53792 334.047703,144.15744 330.931417,140.5236 C326.776369,140.35056 316.561876,139.31232 314.484352,130.31424 C313.272463,127.02648 312.406828,122.70048 312.406828,117.1632 L311.887447,20.2608 L284.014001,20.2608 L284.360255,117.85536 C284.360255,120.97008 284.533382,123.91176 284.533382,126.85344 C285.572144,151.25208 297.344779,166.30656 325.218226,166.99872 Z M362.453978,67.50072 L334.407404,67.50072 L334.407404,125.64216 C334.407404,152.6364 352.758866,168.55608 382.017328,168.72912 C409.198267,168.72912 427.376602,154.02072 429.107872,131.0064 C429.454126,127.89168 429.454126,124.77696 429.454126,121.31616 L429.627253,67.50072 L401.580679,67.50072 L401.580679,112.8372 C401.580679,117.68232 401.407552,122.3544 401.234425,126.6804 C400.36879,138.10104 393.963091,144.15744 382.017328,144.15744 C370.071565,144.15744 363.665867,138.10104 362.627105,126.6804 C362.453978,122.3544 362.280851,117.68232 362.453978,112.8372 L362.453978,67.50072 Z M463.746718,106.26168 L505.989706,106.26168 C505.124071,97.2636 496.813975,87.7464 484.521958,87.7464 C472.922449,87.7464 465.477988,95.87928 463.746718,106.26168 Z M508.586611,135.50544 L531.785629,140.69664 C526.072438,153.84768 512.741659,168.72912 485.906974,168.72912 C460.284178,168.72912 434.488256,149.00256 434.488256,117.33624 C434.488256,86.70816 458.552908,65.94336 484.002577,65.94336 C516.204199,65.94336 533.516899,88.6116 533.516899,125.29608 L463.227337,125.29608 C464.958607,136.1976 474.480592,143.9844 485.733847,145.02264 C494.563324,145.88784 503.565928,142.254 508.586611,135.50544 Z M640.869084,67.50072 L594.471049,115.95192 L646.236021,166.99872 L608.84059,166.99872 L569.194507,127.89168 L569.194507,166.99872 L541.147933,166.99872 L541.147933,16.8 L569.194507,16.8 L569.194507,103.66608 L603.300526,67.50072 L640.869084,67.50072 Z M645.55696,166.99872 L645.55696,66.9816 L673.776661,66.9816 L673.776661,166.99872 L645.55696,166.99872 Z M712.570555,67.15464 L684.523981,67.15464 L684.523981,166.99872 L712.570555,166.99872 L712.570555,115.25976 C712.570555,107.646 716.206222,94.668 729.883255,92.76456 C736.115827,91.72632 741.655891,92.59152 746.503447,93.45672 C748.927225,93.8028 751.004749,94.14888 752.736019,94.14888 L760.007353,68.88504 C758.276083,68.88504 754.121035,67.15464 747.542209,66.1164 C745.118431,65.94336 742.348399,65.77032 739.232113,65.77032 C727.459477,66.28944 716.206222,73.038 712.570555,79.0944 L712.570555,67.15464 Z M767.638387,166.99872 L767.638387,66.9816 L795.858088,66.9816 L795.858088,166.99872 L767.638387,166.99872 Z M659.452496,58.3095308 C652.158672,58.3095308 646.245859,52.3996895 646.245859,45.1095308 C646.245859,37.8193721 652.158672,31.9095308 659.452496,31.9095308 C666.746319,31.9095308 672.659132,37.8193721 672.659132,45.1095308 C672.659132,52.3996895 666.746319,58.3095308 659.452496,58.3095308 Z M781.914034,58.3095308 C774.62021,58.3095308 768.707398,52.3996895 768.707398,45.1095308 C768.707398,37.8193721 774.62021,31.9095308 781.914034,31.9095308 C789.207858,31.9095308 795.120671,37.8193721 795.120671,45.1095308 C795.120671,52.3996895 789.207858,58.3095308 781.914034,58.3095308 Z" id="Combined-Shape-Copy" fill="#0152D4"></path>
                <g id="Group-Copy-5">
                    <path d="M60.7217395,151.568731 C53.4832542,146.034485 50.9211947,145.183443 42.1566004,145.401931 C37.7677778,145.511586 33.7776243,145.933009 33.2906949,146.338076 C31.0194846,148.224292 16.3889494,150.675138 11.6128689,149.968927 C7.91194157,149.41985 3.6701582,146.437909 1.48064934,142.842235 C-0.344490741,139.842295 -0.51279609,133.972533 1.14567836,131.069158 C2.67506684,128.386719 2.6391269,125.01937 1.03293938,120.526013 C-0.659852032,115.797794 -0.0454764366,113.386215 3.96100738,109.031975 C6.33679157,106.451833 8.30898759,105.234169 11.8644987,104.156461 C16.5196751,102.744047 16.6797986,102.748955 21.1519624,104.424053 C26.7809807,106.534472 28.1028612,106.545935 32.0668629,104.521423 C38.267758,101.352094 47.086279,103.146656 51.5764294,108.490238 C54.0126657,111.38954 54.2528509,113.83219 52.9130005,122.109443 C51.6466863,129.914526 54.4080887,136.242531 60.5158545,139.537883 C65.911213,142.446989 67.3948567,138.472442 67.4030218,121.106195 C67.4079243,107.050835 66.67917,103.979703 62.2315183,99.2858518 C57.411316,94.2000315 51.6466863,92.1918898 43.5781523,92.7851674 C24.0620604,94.2237623 21.4166597,94.1689367 17.658543,92.2557183 C12.0720067,89.414532 10.862882,87.1674429 11.0115609,79.8975441 C11.1047069,75.29862 10.7386984,72.8829581 9.55242931,70.278264 C7.30737082,65.3389229 7.46749431,59.7801166 9.96582232,56.0993412 C12.3040436,52.6501493 18.8137578,49.8163286 24.3986544,49.8163286 C26.7532059,49.8163286 29.5309385,48.9865587 32.8217523,47.3000134 C36.6370584,45.3442438 38.4115512,44.8745307 40.7889751,45.1936736 C44.7480745,45.7255779 50.1810126,49.1845906 52.1499459,52.4292045 C54.4129911,56.1566237 56.1596925,64.8536625 56.1809419,72.4999866 C56.1989118,80.0742987 57.6417132,84.1773254 61.5910076,87.8908329 C63.3246414,89.5217314 64.6563267,90.0904604 66.3017336,89.9022477 C68.2771924,89.6739389 68.6693527,89.1968619 69.1562653,86.4203237 C70.0843625,81.1471085 69.7902506,60.1328111 68.7494144,57.3374508 C67.5190403,54.02328 62.269098,48.2189801 57.9456299,45.3859772 C55.8574154,44.0185748 52.942415,40.7903278 50.5159836,37.1570141 C46.880394,31.7119548 46.5241903,30.7651648 46.5241903,26.5377556 C46.5241903,20.4175875 48.6418193,17.2138892 54.8035117,14.0175548 C57.3606688,12.6894323 60.4276109,10.3359616 61.6171427,8.78771209 C65.0631776,4.30580644 68.3850289,1.57509419 71.4193105,0.730593101 C77.6790347,-1.01077782 80.4812961,0.126678463 86.1217423,6.69937486 C88.2851161,9.21978093 90.9305,11.4275919 92.1461837,11.7279127 C100.463068,13.7843356 107.257106,25.0255113 104.497327,32.1702097 C103.294727,35.2847113 96.0235815,42.8876663 91.1412875,46.1330981 C80.6495848,53.1084042 77.0434264,61.4412937 77.0434264,78.7150797 C77.0434264,91.0364309 78.1054952,92.3244573 84.05804,87.223088 C88.4452396,83.4588458 90.5383564,78.8304625 91.5383335,70.6686011 C92.6330963,61.742434 94.417394,55.5199753 96.6069029,52.9881127 C97.5856472,51.8563847 100.11503,50.0929186 102.227756,49.0683899 C107.029972,46.7402874 110.196602,47.0725225 117.703047,50.6886514 C121.701366,52.6165977 124.668653,53.4414588 128.448003,53.6795884 C132.717561,53.9471771 134.081923,54.394795 135.947923,56.1353481 C141.00831,60.857019 141.67007,65.2088106 138.361286,71.9811762 C136.23059,76.3386977 136.228967,76.3517899 137.678294,79.572673 C139.070431,82.6642632 139.072054,82.9326698 137.717496,85.9457002 C136.882545,87.7975452 134.782903,90.183748 132.611364,91.7450914 C129.407154,94.0510987 128.338543,94.3808803 124.431714,94.2728614 C121.962801,94.2041241 118.954671,93.7728731 117.747169,93.3121613 C116.539667,92.8530869 111.134504,92.240171 105.734243,91.9513067 C96.7278237,91.4685014 95.6020234,91.5699709 92.0873546,93.1738672 C87.2998296,95.3579456 81.2035083,101.738338 79.1152939,106.746423 C77.7623759,109.993493 77.5417836,112.292954 77.6153199,122.361483 C77.7149914,135.773646 78.468241,138.551009 82.1185212,138.969986 C86.8455942,139.514974 89.724638,133.872699 90.7507668,122.05625 C91.2376962,116.419706 92.0252628,112.769213 93.40107,109.761899 C95.1690207,105.892096 95.8503737,105.247275 100.572544,102.991995 C108.160674,99.3635921 109.776683,99.6025395 119.209563,105.74398 C122.618019,107.961623 124.152309,108.41333 129.330355,108.725099 C136.225688,109.138344 138.431543,110.328992 141.188043,115.127582 C143.53115,119.203605 143.346515,122.192099 140.390672,128.057772 C137.992015,132.819526 137.920119,133.223788 138.866186,136.918475 C140.188066,142.07958 139.410288,145.572136 136.207718,148.862578 C132.938153,152.221748 127.454551,153.944312 120.363138,153.840372 C115.908945,153.775733 114.162243,153.284742 109.119826,150.679227 C103.673803,147.867508 102.58068,147.594184 96.7212816,147.577828 C90.0612319,147.559812 88.7932781,148.021356 83.3276627,152.452521 C82.6885926,152.970965 77.245206,158.377797 77.245206,162.327757 C77.245206,169.31342 69.1562653,166.847913 69.1562653,162.327757 C69.1562653,155.531981 64.0011088,154.074413 60.7217395,151.568731 Z" id="Combined-Shape" fill="#0152D4"></path>
                    <rect id="Rectangle-5" fill="#0152D4" x="69.1894856" y="154.140845" width="8.08708273" height="19.256338"></rect>
                    <ellipse id="Oval-4" stroke="#0152D4" stroke-width="7.2" cx="73.2330269" cy="182.535211" rx="9.43492985" ry="9.46478873"></ellipse>
                </g>
            </g>
        </g>
    </g>
</svg>